<mxfile host="app.diagrams.net" modified="2023-05-01T09:54:55.886Z" agent="Mozilla/5.0 (Windows NT 10.0; Win64; x64) AppleWebKit/537.36 (KHTML, like Gecko) Chrome/112.0.0.0 Safari/537.36" etag="937OHoiE6vDNdwgzJv3q" version="21.2.3" type="github">
  <diagram name="Sayfa -1" id="yzeuQwknsfPvk0DiW0Bi">
    <mxGraphModel dx="860" dy="322" grid="1" gridSize="10" guides="1" tooltips="1" connect="1" arrows="1" fold="1" page="1" pageScale="1" pageWidth="827" pageHeight="1169" math="0" shadow="0">
      <root>
        <mxCell id="0" />
        <mxCell id="1" parent="0" />
        <mxCell id="qikaXKINNhPwEgQ3y3wu-1" value="Player" style="shape=umlActor;verticalLabelPosition=bottom;verticalAlign=top;html=1;" vertex="1" parent="1">
          <mxGeometry x="20" y="155" width="30" height="60" as="geometry" />
        </mxCell>
        <mxCell id="qikaXKINNhPwEgQ3y3wu-4" value="Game" style="html=1;whiteSpace=wrap;" vertex="1" parent="1">
          <mxGeometry x="170" y="140" width="230" height="130" as="geometry" />
        </mxCell>
        <mxCell id="qikaXKINNhPwEgQ3y3wu-5" value="" style="verticalLabelPosition=bottom;verticalAlign=top;html=1;shape=mxgraph.basic.arc;startAngle=0.7547732166712652;endAngle=0.24638346479839202;" vertex="1" parent="1">
          <mxGeometry x="235" y="90" width="100" height="100" as="geometry" />
        </mxCell>
        <mxCell id="qikaXKINNhPwEgQ3y3wu-6" value="" style="verticalLabelPosition=bottom;verticalAlign=top;html=1;shape=mxgraph.basic.arc;startAngle=0.7547732166712652;endAngle=0.24638346479839202;direction=west;" vertex="1" parent="1">
          <mxGeometry x="235" y="220" width="100" height="100" as="geometry" />
        </mxCell>
        <mxCell id="qikaXKINNhPwEgQ3y3wu-7" value="" style="endArrow=none;html=1;edgeStyle=orthogonalEdgeStyle;rounded=0;" edge="1" parent="1">
          <mxGeometry relative="1" as="geometry">
            <mxPoint x="70" y="200" as="sourcePoint" />
            <mxPoint x="170" y="200" as="targetPoint" />
          </mxGeometry>
        </mxCell>
        <mxCell id="qikaXKINNhPwEgQ3y3wu-10" value="&lt;font style=&quot;font-size: 8px;&quot;&gt;&lt;b&gt;1. endGame()&lt;/b&gt;&lt;/font&gt;" style="html=1;verticalAlign=bottom;endArrow=block;edgeStyle=elbowEdgeStyle;elbow=vertical;curved=0;rounded=0;" edge="1" parent="1">
          <mxGeometry y="10" width="80" relative="1" as="geometry">
            <mxPoint x="80" y="190" as="sourcePoint" />
            <mxPoint x="160" y="190" as="targetPoint" />
            <mxPoint as="offset" />
          </mxGeometry>
        </mxCell>
        <mxCell id="qikaXKINNhPwEgQ3y3wu-11" value="Object : SpaceShip" style="html=1;whiteSpace=wrap;" vertex="1" parent="1">
          <mxGeometry x="560" y="40" width="110" height="50" as="geometry" />
        </mxCell>
        <mxCell id="qikaXKINNhPwEgQ3y3wu-12" value="Object : Alien" style="html=1;whiteSpace=wrap;" vertex="1" parent="1">
          <mxGeometry x="560" y="110" width="110" height="50" as="geometry" />
        </mxCell>
        <mxCell id="qikaXKINNhPwEgQ3y3wu-13" value="Object : Obstacle" style="html=1;whiteSpace=wrap;" vertex="1" parent="1">
          <mxGeometry x="560" y="180" width="110" height="50" as="geometry" />
        </mxCell>
        <mxCell id="qikaXKINNhPwEgQ3y3wu-14" value="Object : MysteryBox" style="html=1;whiteSpace=wrap;" vertex="1" parent="1">
          <mxGeometry x="560" y="250" width="110" height="50" as="geometry" />
        </mxCell>
        <mxCell id="qikaXKINNhPwEgQ3y3wu-15" value="&lt;font style=&quot;font-size: 8px;&quot;&gt;&lt;b&gt;1.1. gameEnding()&lt;/b&gt;&lt;/font&gt;" style="html=1;verticalAlign=bottom;endArrow=block;edgeStyle=elbowEdgeStyle;elbow=vertical;curved=0;rounded=0;" edge="1" parent="1">
          <mxGeometry y="10" width="80" relative="1" as="geometry">
            <mxPoint x="245" y="80" as="sourcePoint" />
            <mxPoint x="325" y="80" as="targetPoint" />
            <mxPoint as="offset" />
          </mxGeometry>
        </mxCell>
        <mxCell id="qikaXKINNhPwEgQ3y3wu-16" value="&lt;font style=&quot;font-size: 8px;&quot;&gt;&lt;b&gt;1.2. finishGame()&lt;br&gt;[gameEnd == true]&lt;/b&gt;&lt;/font&gt;" style="html=1;verticalAlign=bottom;endArrow=block;edgeStyle=elbowEdgeStyle;elbow=vertical;curved=0;rounded=0;" edge="1" parent="1">
          <mxGeometry y="-10" width="80" relative="1" as="geometry">
            <mxPoint x="325" y="360" as="sourcePoint" />
            <mxPoint x="245" y="360" as="targetPoint" />
            <mxPoint as="offset" />
          </mxGeometry>
        </mxCell>
        <mxCell id="qikaXKINNhPwEgQ3y3wu-17" value="" style="endArrow=none;html=1;edgeStyle=orthogonalEdgeStyle;rounded=0;" edge="1" parent="1">
          <mxGeometry relative="1" as="geometry">
            <mxPoint x="400" y="204.67000000000002" as="sourcePoint" />
            <mxPoint x="560" y="204.67000000000002" as="targetPoint" />
          </mxGeometry>
        </mxCell>
        <mxCell id="qikaXKINNhPwEgQ3y3wu-20" value="" style="endArrow=none;html=1;edgeStyle=orthogonalEdgeStyle;rounded=0;" edge="1" parent="1">
          <mxGeometry relative="1" as="geometry">
            <mxPoint x="400" y="150" as="sourcePoint" />
            <mxPoint x="560" y="150" as="targetPoint" />
          </mxGeometry>
        </mxCell>
        <mxCell id="qikaXKINNhPwEgQ3y3wu-21" value="" style="endArrow=none;html=1;edgeStyle=orthogonalEdgeStyle;rounded=0;" edge="1" parent="1">
          <mxGeometry relative="1" as="geometry">
            <mxPoint x="400" y="70" as="sourcePoint" />
            <mxPoint x="560" y="70.00000000000003" as="targetPoint" />
            <Array as="points">
              <mxPoint x="480" y="70" />
              <mxPoint x="480" y="70" />
            </Array>
          </mxGeometry>
        </mxCell>
        <mxCell id="qikaXKINNhPwEgQ3y3wu-22" value="" style="endArrow=none;html=1;edgeStyle=orthogonalEdgeStyle;rounded=0;exitX=1;exitY=0;exitDx=0;exitDy=0;" edge="1" parent="1" source="qikaXKINNhPwEgQ3y3wu-4">
          <mxGeometry relative="1" as="geometry">
            <mxPoint x="360" y="110.00000000000001" as="sourcePoint" />
            <mxPoint x="400" y="70" as="targetPoint" />
          </mxGeometry>
        </mxCell>
        <mxCell id="qikaXKINNhPwEgQ3y3wu-23" value="" style="endArrow=none;html=1;edgeStyle=orthogonalEdgeStyle;rounded=0;" edge="1" parent="1">
          <mxGeometry relative="1" as="geometry">
            <mxPoint x="400" y="269.67" as="sourcePoint" />
            <mxPoint x="560" y="269.67" as="targetPoint" />
          </mxGeometry>
        </mxCell>
        <mxCell id="qikaXKINNhPwEgQ3y3wu-24" value="&lt;font style=&quot;font-size: 8px;&quot;&gt;&lt;b&gt;1.2.1 destroy()&lt;/b&gt;&lt;/font&gt;" style="html=1;verticalAlign=bottom;endArrow=block;edgeStyle=elbowEdgeStyle;elbow=vertical;curved=0;rounded=0;" edge="1" parent="1">
          <mxGeometry width="80" relative="1" as="geometry">
            <mxPoint x="440" y="50" as="sourcePoint" />
            <mxPoint x="520" y="50" as="targetPoint" />
          </mxGeometry>
        </mxCell>
        <mxCell id="qikaXKINNhPwEgQ3y3wu-27" value="&lt;font style=&quot;font-size: 8px;&quot;&gt;&lt;b&gt;1.2.2 destroy()&lt;/b&gt;&lt;/font&gt;" style="html=1;verticalAlign=bottom;endArrow=block;edgeStyle=elbowEdgeStyle;elbow=vertical;curved=0;rounded=0;" edge="1" parent="1">
          <mxGeometry width="80" relative="1" as="geometry">
            <mxPoint x="440" y="134.67000000000002" as="sourcePoint" />
            <mxPoint x="520" y="134.67000000000002" as="targetPoint" />
          </mxGeometry>
        </mxCell>
        <mxCell id="qikaXKINNhPwEgQ3y3wu-28" value="&lt;font style=&quot;font-size: 8px;&quot;&gt;&lt;b&gt;1.2.3 destroy()&lt;/b&gt;&lt;/font&gt;" style="html=1;verticalAlign=bottom;endArrow=block;edgeStyle=elbowEdgeStyle;elbow=vertical;curved=0;rounded=0;" edge="1" parent="1">
          <mxGeometry width="80" relative="1" as="geometry">
            <mxPoint x="440" y="190" as="sourcePoint" />
            <mxPoint x="520" y="190" as="targetPoint" />
          </mxGeometry>
        </mxCell>
        <mxCell id="qikaXKINNhPwEgQ3y3wu-29" value="&lt;b&gt;&lt;font style=&quot;font-size: 8px;&quot;&gt;1.2.4 destroy()&lt;/font&gt;&lt;/b&gt;" style="html=1;verticalAlign=bottom;endArrow=block;edgeStyle=elbowEdgeStyle;elbow=vertical;curved=0;rounded=0;" edge="1" parent="1">
          <mxGeometry width="80" relative="1" as="geometry">
            <mxPoint x="440" y="260" as="sourcePoint" />
            <mxPoint x="520" y="260" as="targetPoint" />
          </mxGeometry>
        </mxCell>
        <mxCell id="qikaXKINNhPwEgQ3y3wu-30" value="&lt;font style=&quot;font-size: 8px;&quot;&gt;&lt;b&gt;[pygame.key.get_pressed(K_q)]&lt;/b&gt;&lt;/font&gt;" style="text;html=1;strokeColor=none;fillColor=none;align=center;verticalAlign=middle;whiteSpace=wrap;rounded=0;" vertex="1" parent="1">
          <mxGeometry x="80" y="140" width="60" height="30" as="geometry" />
        </mxCell>
        <mxCell id="qikaXKINNhPwEgQ3y3wu-31" value="&lt;font style=&quot;font-size: 14px;&quot;&gt;&lt;b&gt;END GAME&lt;/b&gt;&lt;/font&gt;" style="html=1;whiteSpace=wrap;" vertex="1" parent="1">
          <mxGeometry x="10" y="10" width="120" height="60" as="geometry" />
        </mxCell>
      </root>
    </mxGraphModel>
  </diagram>
</mxfile>
